<svg width="3593" height="171" viewBox="0 0 3593 171" fill="none" xmlns="http://www.w3.org/2000/svg">
<g clip-path="url(#clip0_400_1059)">
<path d="M2705 140.999H2692V127.998H2679V140.999H2666V127.998H2653V140.999H2640V127.998V115H2627V127.998V140.999H2614V154H2627H2640H2653H2666H2679H2692H2705H2718H2731V140.999H2718V127.998V115H2705V127.998V140.999Z" fill="#5E2EFF"/>
<path d="M2705 24H2692H2679H2666H2653H2640H2627H2614V36.9981H2627V49.9989V62.9997H2640V49.9989V36.9981H2653H2666H2679H2692H2705V49.9989V62.9997H2718V49.9989V36.9981H2731V24H2718H2705Z" fill="#5E2EFF"/>
<path d="M2705 102H2692V115H2705V102Z" fill="#5E2EFF"/>
<path d="M2705 62.9995H2692V76.0003H2705V62.9995Z" fill="#5E2EFF"/>
<path d="M2679 88.9986V101.999H2692V88.9986V76.0005H2679V88.9986Z" fill="#5E2EFF"/>
<path d="M2679 115H2666V127.998H2679V115Z" fill="#5E2EFF"/>
<path d="M2666 76.0008H2679V63.0001H2692V49.9993H2679H2666H2653V63.0001H2666V76.0008Z" fill="#5E2EFF"/>
<path d="M2666 88.9986V76.0005H2653V88.9986V101.999H2666V88.9986Z" fill="#5E2EFF"/>
<path d="M2653 102H2640V115H2653V102Z" fill="#5E2EFF"/>
<path d="M2653 62.9995H2640V76.0003H2653V62.9995Z" fill="#5E2EFF"/>
<path d="M2771 109.865V151.5H2791.82V109.865H2812.63V151.5H2833.45V109.865H2854.27V151.5H2875.09V109.865H2854.27V89.0478H2833.45V47.413H2812.63V89.0478H2791.82V47.413H2771V89.0478H2791.82V109.865H2771ZM2875.09 89.0478V47.413H2854.27V89.0478H2875.09ZM2958.33 130.683H2937.51V68.2304H2916.7V130.683H2895.88V151.5H2999.97V130.683H2979.15V47.413H2937.51V68.2304H2958.33V130.683ZM3020.76 47.413V151.5H3083.21V130.683H3041.58V109.865H3062.4V89.0478H3041.58V68.2304H3083.21V47.413H3020.76ZM3062.4 5.77826V26.5957H3083.21V5.77826H3062.4ZM3020.76 5.77826V26.5957H3041.58V5.77826H3020.76ZM3208.05 151.5V47.413H3187.24V130.683H3166.42V47.413H3145.6V130.683H3124.78V47.413H3103.97V151.5H3208.05ZM3291.3 151.5V89.0478H3249.67V47.413H3228.85V151.5H3291.3ZM3270.48 130.683H3249.67V109.865H3270.48V130.683Z" fill="#5E2EFF"/>
<path d="M3530.27 150.363V164H3543.91V150.363V136.726H3530.27V150.363Z" fill="#5E2EFF"/>
<path d="M3543.91 95.8174H3530.27V109.455H3543.91V95.8174Z" fill="#5E2EFF"/>
<path d="M3516.63 123.089H3503H3489.36V136.726H3503H3516.63H3530.27V123.089H3516.63Z" fill="#5E2EFF"/>
<path d="M3516.63 82.1799H3503H3489.36V95.8171H3503H3516.63H3530.27V82.1799H3516.63Z" fill="#5E2EFF"/>
<path d="M3516.63 150.363H3503V164H3516.63V150.363Z" fill="#5E2EFF"/>
<path d="M3489.36 136.726H3475.73V150.363H3489.36V136.726Z" fill="#5E2EFF"/>
<path d="M3489.36 95.8174H3475.73V109.455H3489.36V95.8174Z" fill="#5E2EFF"/>
<path d="M3489.36 54.9086V41.2715H3475.73V54.9086V68.5457H3489.36V54.9086Z" fill="#5E2EFF"/>
<path d="M3475.72 68.5457H3462.09V82.18H3475.72V68.5457Z" fill="#5E2EFF"/>
<path d="M3475.72 27.6343H3462.09V41.2714H3475.72V27.6343Z" fill="#5E2EFF"/>
<path d="M3448.45 150.363H3434.82V164H3448.45H3462.09H3475.72V150.363H3462.09H3448.45Z" fill="#5E2EFF"/>
<path d="M3448.45 109.454H3434.82V123.089H3448.45H3462.09H3475.72V109.454H3462.09H3448.45Z" fill="#5E2EFF"/>
<path d="M3462.09 68.5456V54.9084H3448.45H3434.82V68.5456H3448.45H3462.09Z" fill="#5E2EFF"/>
<path d="M3448.45 14H3434.82H3421.18V27.6343H3434.82H3448.45H3462.09V14H3448.45Z" fill="#5E2EFF"/>
<path d="M3434.82 136.726H3421.18V150.363H3434.82V136.726Z" fill="#5E2EFF"/>
<path d="M3434.82 82.18V68.5457H3421.18V82.18V95.8171V109.454H3434.82V95.8171V82.18Z" fill="#5E2EFF"/>
<path d="M3407.54 123.089H3393.91H3380.27V136.726H3393.91H3407.54H3421.18V123.089H3407.54Z" fill="#5E2EFF"/>
<path d="M3421.18 27.6343H3407.54V41.2714H3421.18V27.6343Z" fill="#5E2EFF"/>
<path d="M3407.54 150.363H3393.91V164H3407.54V150.363Z" fill="#5E2EFF"/>
<path d="M3407.54 41.2715H3393.91V54.9086H3407.54V41.2715Z" fill="#5E2EFF"/>
<path d="M3380.27 68.5456V82.1799V95.817H3393.91V82.1799V68.5456V54.9084H3380.27V68.5456Z" fill="#5E2EFF"/>
<path d="M3380.27 136.726H3366.63V150.363H3380.27V136.726Z" fill="#5E2EFF"/>
<path d="M3380.27 95.8174H3366.63V109.455H3380.27V95.8174Z" fill="#5E2EFF"/>
<path d="M3366.63 150.363H3353V164H3366.63V150.363Z" fill="#5E2EFF"/>
<path d="M3366.63 109.454H3353V123.089H3366.63V109.454Z" fill="#5E2EFF"/>
<path d="M3646.36 130.683V47.413H3625.54V89.0478H3604.73V47.413H3583.91V109.865H3625.54V130.683H3646.36ZM3625.54 151.5V130.683H3583.91V151.5H3625.54Z" fill="#5E2EFF"/>
</g>
<path d="M112 140.999H98.9994V127.998H86.0013V140.999H73.0005V127.998H59.9997V140.999H46.9989V127.998V115H34.0008V127.998V140.999H21V154H34.0008H46.9989H59.9997H73.0005H86.0013H98.9994H112H125.001H137.999V140.999H125.001V127.998V115H112V127.998V140.999Z" fill="#5E2EFF"/>
<path d="M112 24H98.9994H86.0013H73.0005H59.9997H46.9989H34.0008H21V36.9981H34.0008V49.9989V62.9997H46.9989V49.9989V36.9981H59.9997H73.0005H86.0013H98.9994H112V49.9989V62.9997H125.001V49.9989V36.9981H137.999V24H125.001H112Z" fill="#5E2EFF"/>
<path d="M112 102H98.9993V115H112V102Z" fill="#5E2EFF"/>
<path d="M112 62.9995H98.9993V76.0003H112V62.9995Z" fill="#5E2EFF"/>
<path d="M86.0012 88.9986V101.999H98.9994V88.9986V76.0005H86.0012V88.9986Z" fill="#5E2EFF"/>
<path d="M86.0013 115H73.0005V127.998H86.0013V115Z" fill="#5E2EFF"/>
<path d="M73.0005 76.0008H86.0013V63.0001H98.9995V49.9993H86.0013H73.0005H59.9998V63.0001H73.0005V76.0008Z" fill="#5E2EFF"/>
<path d="M73.0005 88.9986V76.0005H59.9998V88.9986V101.999H73.0005V88.9986Z" fill="#5E2EFF"/>
<path d="M59.9998 102H46.999V115H59.9998V102Z" fill="#5E2EFF"/>
<path d="M59.9998 62.9995H46.999V76.0003H59.9998V62.9995Z" fill="#5E2EFF"/>
<path d="M177.999 109.865V151.5H198.817V109.865H219.634V151.5H240.451V109.865H261.269V151.5H282.086V109.865H261.269V89.0478H240.451V47.413H219.634V89.0478H198.817V47.413H177.999V89.0478H198.817V109.865H177.999ZM282.086 89.0478V47.413H261.269V89.0478H282.086ZM365.333 130.683H344.515V68.2304H323.698V130.683H302.88V151.5H406.967V130.683H386.15V47.413H344.515V68.2304H365.333V130.683ZM427.761 47.413V151.5H490.214V130.683H448.579V109.865H469.396V89.0478H448.579V68.2304H490.214V47.413H427.761ZM469.396 5.77826V26.5957H490.214V5.77826H469.396ZM427.761 5.77826V26.5957H448.579V5.77826H427.761ZM615.054 151.5V47.413H594.237V130.683H573.419V47.413H552.602V130.683H531.785V47.413H510.967V151.5H615.054ZM698.3 151.5V89.0478H656.666V47.413H635.848V151.5H698.3ZM677.483 130.683H656.666V109.865H677.483V130.683Z" fill="#5E2EFF"/>
<path d="M937.271 150.363V164H950.908V150.363V136.726H937.271V150.363Z" fill="#5E2EFF"/>
<path d="M950.908 95.8174H937.271V109.455H950.908V95.8174Z" fill="#5E2EFF"/>
<path d="M923.633 123.089H909.999H896.362V136.726H909.999H923.633H937.27V123.089H923.633Z" fill="#5E2EFF"/>
<path d="M923.633 82.1799H909.999H896.362V95.8171H909.999H923.633H937.27V82.1799H923.633Z" fill="#5E2EFF"/>
<path d="M923.633 150.363H909.999V164H923.633V150.363Z" fill="#5E2EFF"/>
<path d="M896.362 136.726H882.725V150.363H896.362V136.726Z" fill="#5E2EFF"/>
<path d="M896.362 95.8174H882.725V109.455H896.362V95.8174Z" fill="#5E2EFF"/>
<path d="M896.362 54.9086V41.2715H882.725V54.9086V68.5457H896.362V54.9086Z" fill="#5E2EFF"/>
<path d="M882.725 68.5457H869.091V82.18H882.725V68.5457Z" fill="#5E2EFF"/>
<path d="M882.725 27.6343H869.091V41.2714H882.725V27.6343Z" fill="#5E2EFF"/>
<path d="M855.453 150.363H841.816V164H855.453H869.09H882.725V150.363H869.09H855.453Z" fill="#5E2EFF"/>
<path d="M855.453 109.454H841.816V123.089H855.453H869.09H882.725V109.454H869.09H855.453Z" fill="#5E2EFF"/>
<path d="M869.09 68.5456V54.9084H855.453H841.816V68.5456H855.453H869.09Z" fill="#5E2EFF"/>
<path d="M855.453 14H841.816H828.179V27.6343H841.816H855.453H869.091V14H855.453Z" fill="#5E2EFF"/>
<path d="M841.816 136.726H828.179V150.363H841.816V136.726Z" fill="#5E2EFF"/>
<path d="M841.816 82.18V68.5457H828.179V82.18V95.8171V109.454H841.816V95.8171V82.18Z" fill="#5E2EFF"/>
<path d="M814.545 123.089H800.908H787.271V136.726H800.908H814.545H828.179V123.089H814.545Z" fill="#5E2EFF"/>
<path d="M828.179 27.6343H814.545V41.2714H828.179V27.6343Z" fill="#5E2EFF"/>
<path d="M814.545 150.363H800.908V164H814.545V150.363Z" fill="#5E2EFF"/>
<path d="M814.545 41.2715H800.908V54.9086H814.545V41.2715Z" fill="#5E2EFF"/>
<path d="M787.271 68.5456V82.1799V95.817H800.908V82.1799V68.5456V54.9084H787.271V68.5456Z" fill="#5E2EFF"/>
<path d="M787.271 136.726H773.634V150.363H787.271V136.726Z" fill="#5E2EFF"/>
<path d="M787.271 95.8174H773.634V109.455H787.271V95.8174Z" fill="#5E2EFF"/>
<path d="M773.633 150.363H759.999V164H773.633V150.363Z" fill="#5E2EFF"/>
<path d="M773.633 109.454H759.999V123.089H773.633V109.454Z" fill="#5E2EFF"/>
<path d="M1053.36 130.683V47.413H1032.54V89.0478H1011.73V47.413H990.908V109.865H1032.54V130.683H1053.36ZM1032.54 151.5V130.683H990.908V151.5H1032.54Z" fill="#5E2EFF"/>
<path d="M1114.91 47.413V151.5H1135.73V89.0478H1156.54V109.865H1177.36V89.0478H1156.54V68.2304H1135.73V47.413H1114.91ZM1198.18 89.0478V151.5H1218.99V47.413H1198.18V68.2304H1177.36V89.0478H1198.18ZM1302.24 151.5V47.413H1239.79V151.5H1302.24ZM1281.42 130.683H1260.61V68.2304H1281.42V130.683ZM1385.45 109.865V47.413H1322.99V151.5H1343.81V109.865H1385.45ZM1364.63 89.0478H1343.81V68.2304H1364.63V89.0478ZM1468.65 151.5V47.413H1406.2V89.0478H1427.02V109.865H1447.83V151.5H1468.65ZM1427.02 151.5V109.865H1406.2V151.5H1427.02ZM1447.83 89.0478H1427.02V68.2304H1447.83V89.0478Z" fill="#5E2EFF"/>
<g clip-path="url(#clip1_400_1059)">
<path d="M1659.72 83.2773V97.7224V112.165H1674.16V97.7224V83.2773H1659.72Z" fill="#5E2EFF"/>
<path d="M1645.28 97.7225V83.2774H1659.72V68.8323H1645.28H1630.83H1616.39V54.3901H1601.95V68.8323H1587.5H1573.06V54.3901H1558.61V68.8323H1544.17H1529.72V83.2774V97.7225V112.165V126.61V141.055H1544.17V126.61V112.165V97.7225V83.2774H1558.61H1573.06H1587.5H1601.95H1616.39H1630.83V97.7225V112.165V126.61V141.055H1645.28V126.61H1659.72V112.165H1645.28V97.7225Z" fill="#5E2EFF"/>
<path d="M1601.95 141.055H1587.5H1573.06H1558.61H1544.17V155.5H1558.61H1573.06H1587.5H1601.95H1616.39H1630.83V141.055H1616.39H1601.95Z" fill="#5E2EFF"/>
<path d="M1616.39 25.5H1601.95V39.9451H1616.39V25.5Z" fill="#5E2EFF"/>
<path d="M1601.95 39.9451H1587.5V54.3902H1601.95V39.9451Z" fill="#5E2EFF"/>
<path d="M1573.06 25.5H1558.61V39.9451H1573.06V25.5Z" fill="#5E2EFF"/>
<path d="M1558.61 39.9451H1544.17V54.3902H1558.61V39.9451Z" fill="#5E2EFF"/>
</g>
<path d="M1776.36 151.5V47.413H1713.91V151.5H1734.73V68.2304H1755.54V151.5H1776.36ZM1859.57 151.5V47.413H1797.11V151.5H1859.57ZM1838.75 130.683H1817.93V68.2304H1838.75V130.683ZM1901.14 151.5V68.2304H1942.77V47.413H1880.32V151.5H1901.14ZM2025.98 151.5V47.413H1963.52V151.5H2025.98ZM2005.16 130.683H1984.34V68.2304H2005.16V130.683ZM2109.18 130.683H2088.37V68.2304H2067.55V130.683H2046.73V151.5H2150.82V130.683H2130V47.413H2088.37V68.2304H2109.18V130.683ZM2234.06 151.5V89.0478H2192.43V47.413H2171.61V151.5H2234.06ZM2275.7 151.5V47.413H2254.88V151.5H2275.7ZM2213.25 130.683H2192.43V109.865H2213.25V130.683ZM2358.94 109.865V47.413H2296.49V68.2304H2338.13V89.0478H2317.31V109.865H2358.94ZM2338.13 151.5V130.683H2317.31V151.5H2338.13Z" fill="#5E2EFF"/>
<path d="M2578.79 67.3354V81.7776V96.2227V110.668V125.11H2593.24V110.668V96.2227V81.7776V67.3354H2578.79Z" fill="#5E2EFF"/>
<path d="M2578.8 125.11H2564.35V139.555H2578.8V125.11Z" fill="#5E2EFF"/>
<path d="M2564.35 67.3352H2578.8V52.8902V38.4451H2564.35V52.8902V67.3352Z" fill="#5E2EFF"/>
<path d="M2564.35 96.2227H2549.91V110.668H2564.35V96.2227Z" fill="#5E2EFF"/>
<path d="M2564.35 24H2549.91V38.4451H2564.35V24Z" fill="#5E2EFF"/>
<path d="M2535.46 139.555H2521.02H2506.58H2492.13H2477.69H2463.24H2448.8V154H2463.24H2477.69H2492.13H2506.58H2521.02H2535.46H2549.91H2564.35V139.555H2549.91H2535.46Z" fill="#5E2EFF"/>
<path d="M2549.91 38.4451H2535.46V52.8902H2549.91V38.4451Z" fill="#5E2EFF"/>
<path d="M2535.46 52.8901H2521.02V67.3352H2535.46V52.8901Z" fill="#5E2EFF"/>
<path d="M2506.58 110.667H2492.13H2477.69V125.11H2492.13H2506.58H2521.02H2535.46V110.667H2521.02H2506.58Z" fill="#5E2EFF"/>
<path d="M2506.58 81.7776H2521.02V67.3354H2506.58H2492.13V81.7776H2506.58Z" fill="#5E2EFF"/>
<path d="M2492.13 52.8901H2477.69V67.3352H2492.13V52.8901Z" fill="#5E2EFF"/>
<path d="M2477.69 38.4451H2463.24V52.8902H2477.69V38.4451Z" fill="#5E2EFF"/>
<path d="M2463.24 96.2227H2448.8V110.668H2463.24V96.2227Z" fill="#5E2EFF"/>
<path d="M2463.24 24H2448.8V38.4451H2463.24V24Z" fill="#5E2EFF"/>
<path d="M2448.8 125.11H2434.35V139.555H2448.8V125.11Z" fill="#5E2EFF"/>
<path d="M2448.8 52.8902V38.4451H2434.35V52.8902V67.3352H2448.8V52.8902Z" fill="#5E2EFF"/>
<path d="M2434.35 96.2227V81.7776V67.3354H2419.91V81.7776V96.2227V110.668V125.11H2434.35V110.668V96.2227Z" fill="#5E2EFF"/>
<defs>
<clipPath id="clip0_400_1059">
<rect width="1000" height="171" fill="white" transform="translate(2593)"/>
</clipPath>
<clipPath id="clip1_400_1059">
<rect width="144" height="132" fill="white" transform="translate(1529.91 23)"/>
</clipPath>
</defs>
</svg>
